<?xml version="1.0" encoding="UTF-8" standalone="no"?> <!-- Created with Vectornator for iOS (http://vectornator.io/) --><!DOCTYPE svg PUBLIC "-//W3C//DTD SVG 1.1//EN" "http://www.w3.org/Graphics/SVG/1.1/DTD/svg11.dtd">
<svg style="fill-rule:evenodd;clip-rule:evenodd;stroke-linecap:round;stroke-linejoin:round;" xmlns:vectornator="http://vectornator.io" xmlns:xlink="http://www.w3.org/1999/xlink" xmlns="http://www.w3.org/2000/svg" xml:space="preserve" version="1.1" viewBox="0 0 120 120">
<metadata>
<vectornator:setting key="DimensionsVisible" value="1"/>
<vectornator:setting key="SnapToGrid" value="0"/>
<vectornator:setting key="SnapToPoints" value="0"/>
<vectornator:setting key="GuidesVisible" value="1"/>
<vectornator:setting key="RulersVisible" value="1"/>
<vectornator:setting key="CMYKEnabledKey" value="0"/>
<vectornator:setting key="SnapToEdges" value="0"/>
<vectornator:setting key="DisplayWhiteBackground" value="0"/>
<vectornator:setting key="SnapToGuides" value="1"/>
<vectornator:setting key="GridSpacing" value="36"/>
<vectornator:setting key="Units" value="Pixels"/>
<vectornator:setting key="DynamicGuides" value="0"/>
<vectornator:setting key="New" value="1"/>
</metadata>
<defs/>
<g id="Ebene 1" vectornator:layerName="Ebene 1">
<path d="M52.9722+12.6677C50.5819+12.6677+48.6133+14.4547+48.3918+16.7308C38.9295+17.8587+33.6933+26.4649+33.3408+34.8709C31.1375+35.6094+29.0249+37.2823+29.0249+42.9341C29.0249+43.8602+29.6973+44.6667+30.6538+44.8927C30.7783+44.9219+32.226+45.1966+34.2476+45.5193C34.4823+46.6921+34.7616+47.7859+35.0957+48.9361C35.1279+49.0491+35.16+49.162+35.1923+49.279C34.1734+50.2838+33.3218+51.7551+33.324+53.5549C33.324+53.8636+33.3418+54.1854+33.387+54.5244C33.9093+58.5982+35.8616+60.7779+37.8456+61.6496C38.4733+64.8356+40.0327+68.3709+41.9222+70.1344L41.9222+74.8202C40.5723+77.5825+36.2658+79.0429+31.3046+80.7237C22.9794+83.5446+12.6173+87.0593+11.8327+99.3132C11.7961+99.866+12.0058+100.411+12.4121+100.815C12.8183+101.22+13.3869+101.449+13.978+101.449L78.4646+101.449L78.4646+97.4136L16.4047+97.4136C18.0168+89.5181+25.5024+86.9785+32.7614+84.5189C38.6533+82.5213+44.219+80.6352+46.087+75.9197C46.1772+75.6958+46.2213+75.4584+46.2213+75.2183L46.2213+69.165C46.2213+68.483+45.7003+67.7609+45.092+67.3876C44.3676+66.9437+42.3524+63.7626+41.9096+59.8683C41.8021+58.92+40.9571+58.1701+39.949+58.0712C39.4825+58.0268+38.0629+57.1873+37.6609+54.0436C37.6351+53.8721+37.6231+53.7084+37.6231+53.551C37.6231+52.3928+38.7291+51.7284+38.7399+51.7224C39.5481+51.2603+39.9441+50.3514+39.7055+49.4918C39.5443+48.9067+39.3898+48.3726+39.2437+47.8681C39.1027+47.3839+38.9618+46.7462+38.8196+46.1381C42.8214+46.5784+48.1563+46.9696+54.8321+46.9696C61.6556+46.9696+67.0746+46.5627+71.0965+46.1105C70.8377+46.9997+70.5584+47.7694+70.2946+48.479L69.9755+49.3618C69.6595+50.2536+70.0415+51.2361+70.8992+51.7224C70.9099+51.7304+72.0181+52.3731+72.0159+53.5313C72.0159+53.6866+72.0038+53.8484+71.9823+54.0199C71.5782+57.1737+70.1585+58.0247+69.6942+58.0752C68.6646+58.1539+67.8412+58.9077+67.7294+59.8722C67.2845+63.7625+65.271+66.9498+64.5681+67.3837C63.8609+67.7287+63.4177+68.4164+63.4177+69.165L63.4177+75.2183C63.4177+75.4584+63.4639+75.6977+63.5521+75.9237C65.4222+80.6392+70.9878+82.5232+76.8776+84.5228C77.4042+84.7024+77.9316+84.8968+78.4604+85.0824L78.4604+80.7671C78.4188+80.7533+78.3804+80.7375+78.3386+80.7237C73.3753+79.0429+69.0667+77.5825+67.7168+74.8202L67.7168+70.1305C69.6106+68.3609+71.1721+64.8082+71.7976+61.6141C73.6355+60.7707+75.7125+58.7119+76.252+54.4968C76.295+54.1598+76.315+53.8359+76.315+53.5313C76.3193+51.7859+75.511+50.3527+74.5265+49.3539C74.9025+48.3305+75.2909+47.0182+75.6307+45.4839C77.5156+45.1773+78.8651+44.9209+78.9852+44.8927C79.9417+44.6667+80.6141+43.8602+80.6141+42.9341C80.6141+37.242+78.5038+35.5696+76.294+34.8473C75.9329+26.4473+70.7052+17.8547+61.2472+16.7308C61.0279+14.4547+59.0572+12.6677+56.6626+12.6677L52.9722+12.6677ZM52.9764+16.7032L56.6626+16.7032C56.7378+16.7032+56.9691+16.8638+56.9691+17.1564L56.9691+30.8275C56.9691+31.9413+57.9321+32.8453+59.1186+32.8453C60.3052+32.8453+61.2682+31.9413+61.2682+30.8275L61.2682+20.8136C69.0538+22.109+72.0159+30.396+72.0159+35.7773C72.0159+37.8798+73.9782+38.4117+74.6231+38.5872C75.2207+38.7486+76.0051+38.9597+76.2437+41.3104C73.0817+41.8693+65.6357+42.9341+54.8321+42.9341C44.0242+42.9341+36.5617+41.8654+33.3954+41.3065C33.6297+38.9921+34.3985+38.7767+35.0369+38.5951C35.6753+38.4135+37.6231+37.8617+37.6231+35.7773C37.6231+30.1801+40.5336+22.0648+48.3709+20.8057L48.3709+30.8275C48.3709+31.9413+49.3339+32.8453+50.5204+32.8453C51.707+32.8453+52.67+31.9413+52.67+30.8275L52.67+17.1564C52.67+16.8638+52.8991+16.7032+52.9764+16.7032ZM84.9132+46.9696C83.7261+46.9697+82.7638+47.873+82.7637+48.9874L82.7637+89.3426L82.7637+101.449C82.7637+104.768+85.6764+107.502+89.2123+107.502L102.11+107.502C105.646+107.502+108.558+104.768+108.558+101.449L108.558+93.3781C108.558+92.843+108.332+92.3298+107.929+91.9515L105.149+89.3426L107.929+86.7337C108.768+85.9457+108.768+84.6684+107.929+83.8804L103+79.2538L105.779+76.6449C106.618+75.8569+106.618+74.5796+105.779+73.7916L100.85+69.165L103.629+66.5561C104.469+65.7681+104.469+64.4908+103.629+63.7028L98.7006+59.0762L101.48+56.4673C102.319+55.6793+102.319+54.402+101.48+53.614L95.0312+47.5607C94.6282+47.1823+94.0815+46.9697+93.5114+46.9696L84.9132+46.9696ZM87.0628+51.0051L92.6214+51.0051L96.9205+55.0406L94.1412+57.6495C93.3021+58.4375+93.3021+59.7148+94.1412+60.5028L99.07+65.1294L96.2907+67.7384C95.4516+68.5263+95.4516+69.8036+96.2907+70.5916L101.22+75.2183L98.4403+77.8272C97.6012+78.6151+97.6012+79.8924+98.4403+80.6804L103.369+85.3071L101.22+87.3248L87.0628+87.3248L87.0628+51.0051ZM87.0628+91.3603L101.22+91.3603L104.259+94.2136L104.259+101.449C104.259+102.589+103.324+103.467+102.11+103.467L89.2123+103.467C87.9978+103.467+87.0628+102.589+87.0628+101.449L87.0628+91.3603ZM93.5114+95.3959C92.7362+95.3856+92.0152+95.7679+91.6244+96.3964C91.2336+97.0249+91.2336+97.8023+91.6244+98.4308C92.0152+99.0594+92.7362+99.4417+93.5114+99.4314L97.8105+99.4314C98.5857+99.4417+99.3068+99.0594+99.6976+98.4308C100.088+97.8023+100.088+97.0249+99.6976+96.3964C99.3068+95.7679+98.5857+95.3856+97.8105+95.3959L93.5114+95.3959Z" opacity="1" fill="#000000"/>
</g>
</svg>
